<svg width="40" height="40" viewBox="0 0 40 40" fill="none" xmlns="http://www.w3.org/2000/svg">
<path d="M20 0.799805C9.39605 0.799805 0.800049 9.39581 0.800049 19.9998C0.800049 30.6038 9.39605 39.1998 20 39.1998C30.604 39.1998 39.2001 30.6038 39.2001 19.9998C39.2001 9.39581 30.604 0.799805 20 0.799805ZM27.81 16.5278C27.818 16.6918 27.82 16.8558 27.82 17.0158C27.82 22.0158 24.018 27.7778 17.062 27.7778C15.0066 27.7812 12.994 27.1909 11.266 26.0778C11.56 26.1138 11.862 26.1278 12.168 26.1278C13.94 26.1278 15.57 25.5258 16.864 24.5098C16.0755 24.4943 15.3114 24.2332 14.6783 23.7628C14.0452 23.2925 13.5745 22.6363 13.332 21.8858C13.8984 21.9935 14.4817 21.9709 15.038 21.8198C14.1821 21.6467 13.4124 21.183 12.8595 20.5071C12.3065 19.8313 12.0043 18.985 12.004 18.1118V18.0658C12.514 18.3478 13.098 18.5198 13.718 18.5398C12.9156 18.0057 12.3476 17.1851 12.1301 16.2461C11.9127 15.307 12.0622 14.3203 12.548 13.4878C13.498 14.6558 14.6826 15.6113 16.0252 16.2924C17.3678 16.9736 18.8385 17.3651 20.342 17.4418C20.1509 16.6304 20.2332 15.7786 20.5761 15.0188C20.919 14.259 21.5033 13.6338 22.2382 13.2403C22.9731 12.8469 23.8174 12.7073 24.6398 12.8431C25.4623 12.979 26.2168 13.3829 26.786 13.9918C27.6324 13.8244 28.444 13.5139 29.1861 13.0738C28.904 13.9501 28.3134 14.6942 27.524 15.1678C28.2737 15.0775 29.0058 14.876 29.696 14.5698C29.189 15.3296 28.5503 15.9927 27.81 16.5278V16.5278Z" fill="black"/>
</svg>
