<svg aria-hidden="true" style="position:absolute;width:0;height:0;overflow:hidden" xmlns="http://www.w3.org/2000/svg"><defs><symbol id="icon-circle_facebook" viewBox="0 0 32 32"><path d="M16 .64C7.517.64.64 7.517.64 16S7.517 31.36 16 31.36 31.36 24.483 31.36 16 24.483.64 16 .64zm3.638 10.614h-2.309c-.274 0-.578.36-.578.838v1.667h2.888l-.437 2.378h-2.451v7.138h-2.725v-7.138h-2.472v-2.378h2.472v-1.398c0-2.006 1.392-3.637 3.302-3.637h2.309v2.53z"/></symbol><symbol id="icon-circle_instagram" viewBox="0 0 32 32"><path d="M20.8 16a4.8 4.8 0 0 1-9.6 0c0-.274.029-.541.078-.8H9.6v6.395c0 .445.36.805.805.805h11.192a.801.801 0 0 0 .803-.804v-6.395h-1.678c.05.259.078.526.078.8zM16 19.2a3.199 3.199 0 0 0 2.956-4.427 3.207 3.207 0 0 0-2.958-1.975A3.201 3.201 0 1 0 16 19.2zm3.84-6.56h1.918a.48.48 0 0 0 .482-.48v-1.918a.485.485 0 0 0-.482-.482H19.84a.48.48 0 0 0-.481.482v1.918c.002.264.218.48.482.48zM16 .64A15.356 15.356 0 0 0 .64 16 15.356 15.356 0 0 0 16 31.36 15.36 15.36 0 1 0 16 .64zm8 21.582C24 23.2 23.2 24 22.222 24H9.777c-.978 0-1.778-.8-1.778-1.778V9.777c0-.978.8-1.778 1.778-1.778h12.445c.978 0 1.778.8 1.778 1.778v12.445z"/></symbol><symbol id="icon-circle_pinterest" viewBox="0 0 32 32"><path d="M16 .64C7.517.64.64 7.517.64 16S7.517 31.36 16 31.36 31.36 24.483 31.36 16 24.483.64 16 .64zm1.051 19c-.986-.075-1.398-.563-2.17-1.03-.424 2.226-.942 4.36-2.478 5.475-.475-3.366.694-5.891 1.238-8.574-.926-1.56.11-4.698 2.066-3.926 2.405.954-2.083 5.8.93 6.406 3.146.63 4.43-5.459 2.48-7.437-2.819-2.859-8.203-.066-7.541 4.027.16 1 1.195 1.304.413 2.685-1.803-.4-2.342-1.822-2.272-3.718.11-3.104 2.789-5.278 5.474-5.578 3.397-.378 6.584 1.246 7.026 4.443.494 3.606-1.534 7.509-5.165 7.227z"/></symbol><symbol id="icon-circle_twitter" viewBox="0 0 32 32"><path d="M16 .64C7.517.64.64 7.517.64 16S7.517 31.36 16 31.36 31.36 24.483 31.36 16 24.483.64 16 .64zm6.248 12.582c.006.131.008.262.008.39 0 4-3.042 8.61-8.606 8.61a8.54 8.54 0 0 1-4.637-1.36c.235.029.477.04.722.04a6.063 6.063 0 0 0 3.757-1.294 3.027 3.027 0 0 1-2.826-2.1c.453.086.92.068 1.365-.053a3.024 3.024 0 0 1-2.427-2.966v-.037c.408.226.875.363 1.371.379a3.023 3.023 0 0 1-.936-4.042 8.612 8.612 0 0 0 6.235 3.164 3.026 3.026 0 0 1 5.155-2.76 6.081 6.081 0 0 0 1.92-.734 3.04 3.04 0 0 1-1.33 1.675 6.075 6.075 0 0 0 1.738-.478 6.14 6.14 0 0 1-1.509 1.566z"/></symbol><symbol id="icon-circle_youtube" viewBox="0 0 32 32"><path d="m18.565 15.733-3.594-1.677c-.314-.146-.571.018-.571.365v3.158c0 .347.258.51.571.365l3.592-1.677c.315-.147.315-.387.002-.534zM16 .64C7.517.64.64 7.517.64 16S7.517 31.36 16 31.36 31.36 24.483 31.36 16 24.483.64 16 .64zm0 21.6c-7.862 0-8-.709-8-6.24s.138-6.24 8-6.24 8 .709 8 6.24-.138 6.24-8 6.24z"/></symbol><symbol id="icon-close" viewBox="0 0 32 32"><path d="M23.733 10.304 22.229 8.8l-5.963 5.963L10.303 8.8l-1.504 1.504 5.963 5.963-5.963 5.963 1.504 1.504 5.963-5.963 5.963 5.963 1.504-1.504-5.963-5.963 5.963-5.963z"/></symbol><symbol id="icon-logo" viewBox="0 0 36 32"><path d="M10.352 14.962a.79.79 0 0 1-.087.418 20.37 20.37 0 0 1-.159.361l-.462.49-.274.822a5.466 5.466 0 0 1-.346.231 2.063 2.063 0 0 0-.605.504 1.386 1.386 0 0 1-.606.476c-.125.048-.24.106-.346.173a7.636 7.636 0 0 0-.548.361 7.307 7.307 0 0 1-.519.361.324.324 0 0 0-.115.072.327.327 0 0 1-.101.058c-.029.019-.154.058-.375.115s-.466.125-.736.202l-.736.188a3.633 3.633 0 0 1-.389.087c-.173.019-.351.029-.534.029s-.365.005-.548.014l-.216.13c-.106-.077-.221-.149-.346-.216s-.231-.139-.317-.216a4.344 4.344 0 0 1-.288-.288 21.16 21.16 0 0 1-.26-.317 16.516 16.516 0 0 0-.144-.389 3.356 3.356 0 0 1-.115-.389l-.072-.548a46.364 46.364 0 0 0-.058-.534c-.01-.173-.024-.351-.043-.534.163-.452.308-.904.433-1.356.135-.462.298-.913.49-1.356.048-.106.091-.212.13-.317.048-.115.096-.226.144-.332.058-.115.12-.221.188-.317.067-.106.125-.212.173-.317.048-.115.087-.231.115-.346.029-.125.067-.24.115-.346a3.11 3.11 0 0 1 .144-.245c.067-.115.139-.231.216-.346.077-.125.149-.245.216-.361.077-.115.139-.207.188-.274.077-.096.154-.188.231-.274s.139-.183.188-.288c.096-.163.188-.37.274-.62s.183-.471.288-.663c.115-.212.25-.409.404-.591.163-.192.313-.389.447-.591a7.13 7.13 0 0 0 .418-.663l.635-.462.288.288.692-.115.433.649c-.019.144-.043.308-.072.49l-.058.562-.029.548c0 .173.01.327.029.462a3.07 3.07 0 0 1-.216.548 2.155 2.155 0 0 1-.303.476l-.058.779-.577.519-.072.736-.49.577-.087.418a2.609 2.609 0 0 1-.115.389 4.167 4.167 0 0 1-.173.361 11.68 11.68 0 0 0-.202.361c-.192.163-.389.346-.591.548s-.385.404-.548.606a3.133 3.133 0 0 0-.245.346 3.937 3.937 0 0 1-.216.332c-.25.317-.519.615-.808.894s-.572.567-.851.865l.317.562a12.467 12.467 0 0 0 1.255.347c.096-.019.207-.038.332-.058.125-.029.255-.058.389-.087.135-.038.264-.077.389-.115.135-.038.245-.077.332-.115a5.37 5.37 0 0 0 .663-.332c.25-.154.462-.288.635-.404.308-.192.62-.389.938-.591s.62-.413.909-.635c.192-.144.394-.327.606-.548l.591-.62c.192-.202.361-.365.505-.49.154-.125.26-.173.317-.144zM6.429 8.139c-.202.337-.418.663-.649.981-.221.308-.428.63-.62.966a2.494 2.494 0 0 0-.173.361 2.032 2.032 0 0 1-.188.346c-.067.106-.139.212-.216.317s-.144.221-.202.346a6.856 6.856 0 0 0-.317.707c-.087.24-.183.476-.288.707-.115.231-.25.447-.404.649s-.293.418-.418.649l-.231.462a.582.582 0 0 1-.058.115.327.327 0 0 0-.058.101c-.038.106-.058.221-.058.346s-.014.24-.043.346c-.029.115-.072.226-.13.332s-.111.212-.159.317a1.86 1.86 0 0 0-.115.332 4.157 4.157 0 0 1-.101.317c.077-.077.159-.144.245-.202.096-.067.188-.139.274-.216.087-.087.168-.178.245-.274s.163-.183.26-.26c.087-.077.178-.144.274-.202.106-.067.207-.135.303-.202.154-.212.288-.428.404-.649a1.72 1.72 0 0 0 .144-.361c.048-.135.106-.255.173-.361.058-.106.13-.207.216-.303a1.76 1.76 0 0 0 .245-.303c.077-.106.139-.216.188-.332.058-.115.12-.226.188-.332.135-.212.284-.413.447-.606l.072-.909.519-.606.072-.548.361-.505.043-.808-.245-.721zm11.87 7.025a.456.456 0 0 1-.043.375 1.023 1.023 0 0 1-.274.26 2.515 2.515 0 0 1-.361.216 1.278 1.278 0 0 0-.317.202c-.433.096-.827.168-1.183.216-.346.038-.731.091-1.154.159a1.15 1.15 0 0 1-.361 0c-.106-.029-.216-.038-.332-.029h-.188a.503.503 0 0 0-.173 0c-.221.019-.365.096-.433.231a2.184 2.184 0 0 0-.173.447 2.688 2.688 0 0 1-.159.476c-.058.144-.188.245-.389.303a.128.128 0 0 0 .014.13.756.756 0 0 1 .087.101c-.163.048-.274.135-.332.26-.048.125-.091.25-.13.375s-.096.231-.173.317c-.067.087-.202.115-.404.087a3.483 3.483 0 0 1-1.053.764 3.94 3.94 0 0 1-1.255.389 1.534 1.534 0 0 1-.231-.144 1.718 1.718 0 0 0-.216-.159.86.86 0 0 0-.231-.115.662.662 0 0 0-.274 0 1.79 1.79 0 0 0-.115-.562 2.518 2.518 0 0 0-.288-.49.88.88 0 0 1 .072-.476c.058-.154.12-.303.188-.447s.125-.288.173-.433a.975.975 0 0 0-.029-.519.418.418 0 0 0 .188-.202.71.71 0 0 0 .072-.231c.019-.087.043-.163.072-.231.029-.077.096-.139.202-.188-.077-.231-.067-.399.029-.505.106-.115.231-.216.375-.303s.279-.183.404-.289c.125-.106.173-.264.144-.476.058-.058.125-.106.202-.144s.149-.072.216-.101c.077-.038.149-.077.216-.115s.13-.091.188-.159c-.067-.048-.101-.096-.101-.144a.874.874 0 0 1 .043-.144l.058-.173a.183.183 0 0 0 0-.173c.26.038.486.005.678-.101.202-.115.389-.231.562-.346.183-.115.365-.197.548-.245s.394.01.635.173l.087.303c.048.125.091.255.13.389.048.135.091.264.13.389s.063.216.072.274v1.154c.279.164.558.264.837.303a1.35 1.35 0 0 0 .837-.202c.106.096.207.125.303.087a2.45 2.45 0 0 0 .274-.159.553.553 0 0 1 .288-.087c.096-.01.192.067.288.231a.874.874 0 0 1 .418-.231c.144-.038.293-.058.447-.058.154-.01.303-.024.447-.043a.947.947 0 0 0 .447-.188zm-5.538.245c0-.144.024-.298.072-.462s.087-.322.115-.476a1.067 1.067 0 0 0-.014-.462c-.029-.144-.12-.274-.274-.389a.709.709 0 0 0-.26.245 7.968 7.968 0 0 0-.202.303.983.983 0 0 1-.245.245c-.087.067-.202.087-.346.058-.048.115-.048.212 0 .289.048.067.106.135.173.202.067.058.13.12.188.188.067.067.091.154.072.26a.754.754 0 0 0 .159.087c.067.019.135.034.202.043.077 0 .149-.01.216-.029s.115-.053.144-.101zm-.101 1.153a.959.959 0 0 1-.505-.13 9.452 9.452 0 0 1-.418-.317 3.62 3.62 0 0 0-.433-.317 1.047 1.047 0 0 0-.534-.188 2.522 2.522 0 0 1-.303.332c-.115.096-.216.202-.303.317s-.149.24-.188.375c-.029.135-.005.288.072.462a.84.84 0 0 0-.447.462c-.077.192-.13.404-.159.635l-.058.692c-.02.23-.082.438-.188.62l.317-.216a.186.186 0 0 1 .086.087.124.124 0 0 1 .014.13.755.755 0 0 1 .26-.173c.096-.048.192-.082.289-.101.106-.029.207-.053.303-.072a1.51 1.51 0 0 0 .303-.087c.24.135.413.164.519.087s.192-.192.26-.346.139-.312.216-.476a.518.518 0 0 1 .375-.317l-.101-.101a5.14 5.14 0 0 0 .433-.62c.135-.221.197-.466.188-.736zm14.163-.995c-.106.135-.188.284-.245.447s-.13.317-.216.462a1.118 1.118 0 0 1-.303.361c-.115.096-.279.14-.49.13a.624.624 0 0 0-.346.317c-.067.144-.135.293-.202.447a1.126 1.126 0 0 1-.26.361c-.106.087-.264.096-.476.029a2.782 2.782 0 0 0-.736.462 8.693 8.693 0 0 0-.606.577 3.653 3.653 0 0 0-.231.26 1.206 1.206 0 0 1-.245.216c-.067.038-.135.043-.202.014s-.13-.058-.188-.087a.314.314 0 0 0-.173-.058c-.048 0-.091.043-.13.13.067.135.082.226.043.274-.038.058-.101.101-.188.13s-.178.053-.274.072a.512.512 0 0 0-.231.101c-.115.106-.197.236-.245.389s-.091.308-.13.462a1.683 1.683 0 0 1-.173.433.688.688 0 0 1-.346.332c.096.067.135.135.115.202a.586.586 0 0 1-.072.202 1.29 1.29 0 0 0-.086.216c-.01.067.029.135.115.202a4.22 4.22 0 0 0-.389.591l-.317.635a6.767 6.767 0 0 1-.346.635 2.069 2.069 0 0 1-.447.562l.043.346c-.144-.038-.236-.034-.274.014-.029.048-.043.115-.043.202v.26c.01.096-.019.168-.087.216a.284.284 0 0 1-.101.086.552.552 0 0 0-.087.072 1.758 1.758 0 0 0-.635.88c-.019.058-.034.115-.043.173s-.024.12-.043.188c-.048.135-.125.274-.231.418s-.221.293-.346.447a9.437 9.437 0 0 0-.361.476 2.71 2.71 0 0 0-.274.519c-.154-.019-.274-.005-.361.043a.727.727 0 0 0-.231.216c-.058.096-.106.197-.144.303s-.087.197-.144.274a.589.589 0 0 1-.245.188c-.106.048-.24.048-.404 0l-.649.591a.378.378 0 0 0-.332-.043 1.465 1.465 0 0 0-.332.159c-.115.067-.226.12-.332.159a.446.446 0 0 1-.361-.043c-.067.077-.125.115-.173.115-.048.01-.106-.029-.173-.115l-.216.231a2.401 2.401 0 0 0-.418-.274 2.546 2.546 0 0 1-.476-.274 1.188 1.188 0 0 1-.346-.346c-.086-.125-.101-.288-.043-.49a1.024 1.024 0 0 0-.087-.188.954.954 0 0 1-.115-.216.8.8 0 0 1-.058-.216.233.233 0 0 1 .058-.188.782.782 0 0 1-.087-.505c.019-.164.053-.327.101-.49s.087-.327.115-.49a.743.743 0 0 0-.087-.49.81.81 0 0 0 .26-.332c.048-.135.096-.274.144-.418.038-.144.082-.284.13-.418s.13-.245.245-.332l-.014-.231c.452-.481.933-.923 1.442-1.327a5.113 5.113 0 0 1 1.702-.88c.125-.221.288-.385.49-.49.202-.096.409-.188.62-.274.202-.077.389-.178.563-.303.173-.115.303-.303.389-.563.048.106.096.149.144.13a.349.349 0 0 0 .144-.072c.058-.029.111-.053.159-.072.048-.01.096.034.144.13.096-.288.25-.519.462-.692.221-.173.462-.327.721-.462l.808-.375c.269-.115.505-.26.707-.433.212-.173.37-.385.476-.635.106-.26.13-.591.072-.995a.423.423 0 0 0 .173-.216c.029-.096.048-.192.058-.288.019-.096.043-.183.072-.26s.091-.13.188-.159c-.067-.106-.149-.154-.245-.144s-.197.038-.303.087c-.096.048-.188.096-.274.144s-.159.058-.216.029c-.029.135-.091.231-.188.288a2.069 2.069 0 0 1-.288.159c-.106.038-.216.082-.332.13s-.207.125-.274.231c-.086-.038-.168-.019-.245.058a5.233 5.233 0 0 0-.216.231c-.067.077-.144.135-.231.173s-.188 0-.303-.115a.478.478 0 0 1-.288.303c-.125.048-.264.072-.418.072s-.312-.01-.476-.029a1.222 1.222 0 0 0-.418.014l-.245-.245a.258.258 0 0 1-.086.115.152.152 0 0 1-.144.014 6.372 6.372 0 0 1-.216-.519 2.097 2.097 0 0 1-.144-.562 1.17 1.17 0 0 1 .043-.548.974.974 0 0 1 .346-.476c.269-.49.62-.875 1.053-1.154a.194.194 0 0 0 .159.043 1.27 1.27 0 0 0 .361-.187.384.384 0 0 1 .159-.087.836.836 0 0 1 .159-.303c.087-.096.178-.183.274-.26a5.723 5.723 0 0 1 .634-.375c.183-.086.351-.192.505-.317a8.31 8.31 0 0 1 .49-.375c.163-.125.332-.231.505-.317s.37-.13.591-.13l.26.231a1.721 1.721 0 0 0-.433.361c-.115.135-.236.274-.361.418-.125.135-.26.26-.404.375s-.322.192-.534.231a2.66 2.66 0 0 1-.707.865c-.288.231-.587.447-.894.649 0 .144-.043.26-.13.346s-.188.163-.303.231c-.115.067-.231.13-.346.188a.77.77 0 0 0-.288.202.445.445 0 0 0-.101.303c0 .115.062.269.188.462.115-.058.255-.096.418-.115s.322-.043.476-.072c.154-.038.288-.091.404-.159a.599.599 0 0 0 .26-.346c.135-.115.279-.188.433-.216s.312-.034.476-.014c.317-.346.635-.663.952-.952.327-.298.635-.601.923-.909s.553-.635.793-.981c.25-.356.466-.764.649-1.226.192-.058.365-.034.519.072s.264.24.332.404a1.328 1.328 0 0 1-.101.332l-.115.289a2.088 2.088 0 0 0-.072.288c-.01.106.01.226.058.361-.077-.019-.139.005-.188.072a.807.807 0 0 1-.13.173.602.602 0 0 1-.014.346 2.036 2.036 0 0 1-.144.288 2.013 2.013 0 0 0-.159.288.699.699 0 0 0-.029.346c-.135.25-.236.514-.303.793a5.747 5.747 0 0 0-.115.822l.26.231c.125-.183.279-.312.462-.389.192-.077.385-.139.577-.188.192-.058.38-.12.563-.188.183-.077.341-.207.476-.389.058-.279.178-.476.361-.591.183-.125.375-.231.577-.317s.394-.183.577-.288c.192-.115.327-.298.404-.548h.361c-.019.048-.01.091.029.13l.101.101zm-7.976 6.39c-.096.058-.202.111-.317.159s-.231.101-.346.159c-.115.058-.221.125-.317.202s-.168.173-.216.288a.31.31 0 0 0-.303-.014c-.087.058-.173.12-.26.188a1.311 1.311 0 0 1-.274.188c-.087.048-.183.043-.288-.014a4.9 4.9 0 0 0-.519.375c-.173.135-.346.264-.519.39a4.68 4.68 0 0 1-.534.361 2.416 2.416 0 0 1-.606.26 1.124 1.124 0 0 1-.418.404c-.173.106-.346.207-.519.303-.183.096-.346.212-.49.346s-.236.322-.274.563c-.298.192-.5.438-.606.736-.115.308-.178.63-.188.966-.01.346.005.692.043 1.038a9.2 9.2 0 0 1 .058.966c.125.144.25.245.375.303s.255.087.389.087c.135 0 .274-.019.418-.058.135-.029.284-.058.447-.086.038-.144.111-.24.216-.288.096-.038.202-.067.317-.087.106-.019.207-.048.303-.086.087-.029.135-.106.144-.231l.13.115a.722.722 0 0 1 .13-.389c.077-.096.168-.188.274-.274s.221-.168.346-.245c.115-.077.216-.163.303-.26-.019-.183.014-.337.101-.462s.183-.24.288-.346.202-.221.288-.346a.749.749 0 0 0 .087-.476c.096-.038.163-.101.202-.188s.077-.168.115-.245a.425.425 0 0 1 .144-.173c.067-.038.168-.029.303.029-.135-.106-.192-.188-.173-.245a.445.445 0 0 1 .144-.159c.067-.038.13-.087.188-.144s.058-.144 0-.26c.231-.096.38-.236.447-.418s.115-.38.144-.591c.038-.202.091-.404.159-.606.067-.192.216-.346.447-.462a.745.745 0 0 1 .087-.462c.087-.125.168-.245.245-.361a.953.953 0 0 0 .173-.361c.038-.125.005-.274-.101-.447l-.188.361zm16.947-6.793a.456.456 0 0 1-.043.375 1.023 1.023 0 0 1-.274.26 2.515 2.515 0 0 1-.361.216 1.278 1.278 0 0 0-.317.202c-.433.096-.827.168-1.183.216-.346.038-.731.091-1.154.159a1.15 1.15 0 0 1-.361 0c-.106-.029-.216-.038-.332-.029h-.188a.503.503 0 0 0-.173 0c-.221.019-.365.096-.433.231a2.184 2.184 0 0 0-.173.447 2.688 2.688 0 0 1-.159.476c-.058.144-.188.245-.389.303a.128.128 0 0 0 .014.13.756.756 0 0 1 .087.101c-.164.048-.274.135-.332.26-.048.125-.091.25-.13.375s-.096.231-.173.317c-.067.087-.202.115-.404.087a3.483 3.483 0 0 1-1.053.764 3.94 3.94 0 0 1-1.255.389 1.534 1.534 0 0 1-.231-.144 1.718 1.718 0 0 0-.216-.159.86.86 0 0 0-.231-.115.662.662 0 0 0-.274 0 1.79 1.79 0 0 0-.115-.562 2.518 2.518 0 0 0-.288-.49.88.88 0 0 1 .072-.476c.058-.154.12-.303.188-.447s.125-.288.173-.433a.975.975 0 0 0-.029-.519.418.418 0 0 0 .188-.202.71.71 0 0 0 .072-.231c.019-.087.043-.163.072-.231.029-.077.096-.139.202-.188-.077-.231-.067-.399.029-.505.106-.115.231-.216.375-.303s.279-.183.404-.289c.125-.106.173-.264.144-.476.058-.058.125-.106.202-.144s.149-.072.216-.101c.077-.038.149-.077.216-.115s.13-.091.188-.159c-.067-.048-.101-.096-.101-.144a.874.874 0 0 1 .043-.144l.058-.173a.183.183 0 0 0 0-.173c.26.038.486.005.678-.101.202-.115.39-.231.563-.346.183-.115.365-.197.548-.245s.394.01.635.173l.087.303c.048.125.091.255.13.389.048.135.091.264.13.389s.062.216.072.274v1.154c.279.164.558.264.837.303a1.35 1.35 0 0 0 .837-.202c.106.096.207.125.303.087a2.45 2.45 0 0 0 .274-.159.553.553 0 0 1 .288-.087c.096-.01.192.067.288.231a.874.874 0 0 1 .418-.231c.144-.038.293-.058.447-.058.154-.01.303-.024.447-.043a.947.947 0 0 0 .447-.188zm-5.538.245c0-.144.024-.298.072-.462s.087-.322.115-.476a1.067 1.067 0 0 0-.014-.462c-.029-.144-.12-.274-.274-.389a.709.709 0 0 0-.26.245 7.968 7.968 0 0 0-.202.303.983.983 0 0 1-.245.245c-.086.067-.202.087-.346.058-.048.115-.048.212 0 .289.048.067.106.135.173.202.067.058.13.12.188.188.067.067.091.154.072.26a.754.754 0 0 0 .159.087c.067.019.135.034.202.043.077 0 .149-.01.216-.029s.115-.053.144-.101zm-.101 1.153a.959.959 0 0 1-.505-.13 9.452 9.452 0 0 1-.418-.317 3.62 3.62 0 0 0-.433-.317 1.047 1.047 0 0 0-.534-.188 2.454 2.454 0 0 1-.303.332c-.115.096-.216.202-.303.317s-.149.24-.188.375c-.029.135-.005.288.072.462a.84.84 0 0 0-.447.462c-.077.192-.13.404-.159.635l-.058.692c-.02.23-.082.438-.188.62l.317-.216a.193.193 0 0 1 .087.087.124.124 0 0 1 .014.13.755.755 0 0 1 .26-.173 1.14 1.14 0 0 1 .288-.101c.106-.029.207-.053.303-.072a1.51 1.51 0 0 0 .303-.087c.24.135.413.164.519.087s.192-.192.26-.346c.067-.154.14-.312.216-.476a.518.518 0 0 1 .375-.317l-.101-.101c.163-.202.308-.409.433-.62.135-.221.197-.466.188-.736z"/></symbol><symbol id="icon-menu" viewBox="0 0 32 32"><path d="M6.4 11.733V9.6h19.2v2.133H6.4zm0 5.334h19.2v-2.133H6.4v2.133zm0 5.333h19.2v-2.133H6.4V22.4z"/></symbol></defs></svg>