<svg width="44" height="39" viewBox="0 0 44 39" fill="none" xmlns="http://www.w3.org/2000/svg">
<path d="M12.6166 18.2344C12.6283 18.4102 12.5932 18.5801 12.5111 18.7441C12.4408 18.9082 12.3764 19.0547 12.3178 19.1836L11.7553 19.7812L11.4213 20.7832C11.2924 20.877 11.1518 20.9707 10.9994 21.0645C10.8588 21.1465 10.7299 21.2344 10.6127 21.3281C10.4838 21.4336 10.3666 21.5508 10.2611 21.6797C10.1674 21.8086 10.0619 21.9199 9.94472 22.0137C9.82754 22.1074 9.68691 22.1895 9.52285 22.2598C9.3705 22.3184 9.22988 22.3887 9.10097 22.4707C8.8666 22.6113 8.64394 22.7578 8.433 22.9102C8.23379 23.0625 8.02285 23.209 7.80019 23.3496C7.7416 23.373 7.69472 23.4023 7.65957 23.4375C7.63613 23.4609 7.59511 23.4844 7.53652 23.5078C7.50136 23.5312 7.34902 23.5781 7.07949 23.6484C6.80996 23.7188 6.51113 23.8008 6.183 23.8945C5.8666 23.9766 5.56777 24.0527 5.28652 24.123C5.00527 24.1934 4.84707 24.2285 4.81191 24.2285C4.60097 24.252 4.38418 24.2637 4.16152 24.2637C3.93886 24.2637 3.71621 24.2695 3.49355 24.2812L3.22988 24.4395C3.10097 24.3457 2.96035 24.2578 2.808 24.1758C2.65566 24.0938 2.52675 24.0059 2.42129 23.9121C2.3041 23.8066 2.18691 23.6895 2.06972 23.5605C1.95254 23.4199 1.84707 23.291 1.75332 23.1738C1.69472 23.0098 1.63613 22.8516 1.57754 22.6992C1.51894 22.5352 1.47207 22.377 1.43691 22.2246L1.34902 21.5566C1.32558 21.334 1.30215 21.1172 1.27871 20.9062C1.26699 20.6953 1.24941 20.4785 1.22597 20.2559C1.42519 19.7051 1.60097 19.1543 1.75332 18.6035C1.91738 18.041 2.1166 17.4902 2.35097 16.9512C2.40957 16.8223 2.4623 16.6934 2.50918 16.5645C2.56777 16.4238 2.62636 16.2891 2.68496 16.1602C2.75527 16.0195 2.83144 15.8906 2.91347 15.7734C2.9955 15.6445 3.06582 15.5156 3.12441 15.3867C3.183 15.2461 3.22988 15.1055 3.26504 14.9648C3.30019 14.8125 3.34707 14.6719 3.40566 14.543C3.44082 14.4727 3.49941 14.373 3.58144 14.2441C3.66347 14.1035 3.75136 13.9629 3.84511 13.8223C3.93886 13.6699 4.02675 13.5234 4.10879 13.3828C4.20254 13.2422 4.27871 13.1309 4.3373 13.0488C4.43105 12.9316 4.5248 12.8203 4.61855 12.7148C4.7123 12.6094 4.78847 12.4922 4.84707 12.3633C4.96425 12.1641 5.07558 11.9121 5.18105 11.6074C5.28652 11.3027 5.40371 11.0332 5.53261 10.7988C5.67324 10.541 5.8373 10.3008 6.0248 10.0781C6.22402 9.84375 6.40566 9.60352 6.56972 9.35742C6.7455 9.11133 6.91543 8.8418 7.07949 8.54883L7.85293 7.98633L8.20449 8.33789L9.04824 8.19727L9.57558 8.98828C9.55215 9.16406 9.52285 9.36328 9.48769 9.58594C9.46425 9.80859 9.44082 10.0371 9.41738 10.2715C9.40566 10.4941 9.39394 10.7168 9.38222 10.9395C9.38222 11.1504 9.39394 11.3379 9.41738 11.502C9.35879 11.7129 9.2709 11.9355 9.15371 12.1699C9.04824 12.3926 8.92519 12.5859 8.78457 12.75L8.71425 13.6992L8.01113 14.332L7.92324 15.2285L7.32558 15.9316C7.29043 16.0957 7.25527 16.2656 7.22011 16.4414C7.18496 16.6055 7.13808 16.7637 7.07949 16.916C7.0209 17.0566 6.95058 17.2031 6.86855 17.3555C6.78652 17.4961 6.70449 17.6426 6.62246 17.7949C6.38808 17.9941 6.14785 18.2168 5.90175 18.4629C5.65566 18.709 5.433 18.9551 5.23379 19.2012C5.12832 19.3301 5.02871 19.4707 4.93496 19.623C4.85293 19.7637 4.76504 19.8984 4.67129 20.0273C4.3666 20.4141 4.03847 20.7773 3.68691 21.1172C3.33535 21.457 2.98965 21.8086 2.6498 22.1719L3.03652 22.8574C3.28261 22.9395 3.53457 23.0156 3.79238 23.0859C4.05019 23.1562 4.308 23.2207 4.56582 23.2793C4.683 23.2559 4.81777 23.2324 4.97011 23.209C5.12246 23.1738 5.28066 23.1387 5.44472 23.1035C5.60879 23.0566 5.76699 23.0098 5.91933 22.9629C6.0834 22.916 6.21816 22.8691 6.32363 22.8223C6.558 22.7285 6.82754 22.5938 7.13222 22.418C7.43691 22.2305 7.69472 22.0664 7.90566 21.9258C8.28066 21.6914 8.66152 21.4512 9.04824 21.2051C9.43496 20.959 9.8041 20.7012 10.1557 20.4316C10.39 20.2559 10.6361 20.0332 10.8939 19.7637C11.1518 19.4941 11.392 19.2422 11.6146 19.0078C11.849 18.7617 12.0541 18.5625 12.2299 18.4102C12.4174 18.2578 12.5463 18.1992 12.6166 18.2344ZM7.83535 9.91992C7.58925 10.3301 7.32558 10.7285 7.04433 11.1152C6.7748 11.4902 6.52285 11.8828 6.28847 12.293C6.20644 12.4336 6.13613 12.5801 6.07754 12.7324C6.01894 12.873 5.94277 13.0137 5.84902 13.1543C5.76699 13.2832 5.6791 13.4121 5.58535 13.541C5.4916 13.6699 5.40957 13.8105 5.33925 13.9629C5.19863 14.2324 5.06972 14.5195 4.95254 14.8242C4.84707 15.1172 4.72988 15.4043 4.60097 15.6855C4.46035 15.9668 4.29629 16.2305 4.10879 16.4766C3.92129 16.7227 3.75136 16.9863 3.59902 17.2676L3.31777 17.8301C3.29433 17.8887 3.2709 17.9355 3.24746 17.9707C3.22402 17.9941 3.20058 18.0352 3.17715 18.0938C3.13027 18.2227 3.10683 18.3633 3.10683 18.5156C3.10683 18.668 3.08925 18.8086 3.0541 18.9375C3.01894 19.0781 2.96621 19.2129 2.8959 19.3418C2.82558 19.4707 2.76113 19.5996 2.70254 19.7285C2.64394 19.8574 2.59707 19.9922 2.56191 20.1328C2.52675 20.2617 2.48574 20.3906 2.43886 20.5195C2.53261 20.4258 2.63222 20.3438 2.73769 20.2734C2.85488 20.1914 2.96621 20.1035 3.07168 20.0098C3.17715 19.9043 3.27675 19.793 3.3705 19.6758C3.46425 19.5586 3.56972 19.4531 3.68691 19.3594C3.79238 19.2656 3.90371 19.1836 4.0209 19.1133C4.1498 19.0312 4.27285 18.9492 4.39004 18.8672C4.57754 18.6094 4.7416 18.3457 4.88222 18.0762C4.95254 17.9473 5.01113 17.8008 5.058 17.6367C5.1166 17.4727 5.18691 17.3262 5.26894 17.1973C5.33925 17.0684 5.42715 16.9453 5.53261 16.8281C5.6498 16.7109 5.74941 16.5879 5.83144 16.459C5.92519 16.3301 6.00136 16.1953 6.05996 16.0547C6.13027 15.9141 6.20644 15.7793 6.28847 15.6504C6.45254 15.3926 6.63418 15.1465 6.8334 14.9121L6.92129 13.8047L7.5541 13.0664L7.64199 12.3984L8.08144 11.7832L8.13418 10.7988L7.83535 9.91992ZM22.3021 18.4805C22.349 18.6562 22.3314 18.8086 22.2494 18.9375C22.1674 19.0547 22.0561 19.1602 21.9154 19.2539C21.7865 19.3477 21.64 19.4355 21.476 19.5176C21.3236 19.5879 21.1947 19.6699 21.0893 19.7637C20.5619 19.8809 20.0814 19.9688 19.6478 20.0273C19.226 20.0742 18.7572 20.1387 18.2416 20.2207C18.0893 20.2441 17.9428 20.2441 17.8021 20.2207C17.6732 20.1855 17.5385 20.1738 17.3978 20.1855C17.3158 20.1855 17.2396 20.1855 17.1693 20.1855C17.099 20.1738 17.0287 20.1738 16.9584 20.1855C16.6889 20.209 16.5131 20.3027 16.4311 20.4668C16.349 20.6191 16.2787 20.8008 16.2201 21.0117C16.1732 21.2109 16.1088 21.4043 16.0268 21.5918C15.9564 21.7676 15.7982 21.8906 15.5521 21.9609C15.5287 22.0195 15.5346 22.0723 15.5697 22.1191C15.6166 22.166 15.6518 22.207 15.6752 22.2422C15.476 22.3008 15.3412 22.4062 15.2709 22.5586C15.2123 22.7109 15.1596 22.8633 15.1127 23.0156C15.0658 23.168 14.9955 23.2969 14.9018 23.4023C14.8197 23.5078 14.6557 23.543 14.4096 23.5078C14.0463 23.8945 13.6186 24.2051 13.1264 24.4395C12.6342 24.6855 12.1244 24.8438 11.5971 24.9141C11.5033 24.8672 11.4096 24.8086 11.3158 24.7383C11.2338 24.668 11.1459 24.6035 11.0521 24.5449C10.9701 24.4863 10.8764 24.4395 10.7709 24.4043C10.6771 24.3809 10.5658 24.3809 10.4369 24.4043C10.4252 24.1582 10.3783 23.9297 10.2963 23.7188C10.2025 23.5078 10.0853 23.3086 9.94472 23.1211C9.92129 22.9102 9.95058 22.7168 10.0326 22.541C10.1029 22.3535 10.1791 22.1719 10.2611 21.9961C10.3432 21.8203 10.4135 21.6445 10.4721 21.4688C10.5189 21.2812 10.5072 21.0703 10.4369 20.8359C10.5541 20.7656 10.6303 20.6836 10.6654 20.5898C10.7123 20.4961 10.7416 20.4023 10.7533 20.3086C10.7768 20.2031 10.8061 20.1094 10.8412 20.0273C10.8764 19.9336 10.9584 19.8574 11.0873 19.7988C10.9936 19.5176 11.0053 19.3125 11.1225 19.1836C11.2514 19.043 11.4037 18.9199 11.5795 18.8145C11.7553 18.709 11.9193 18.5918 12.0717 18.4629C12.224 18.334 12.2826 18.1406 12.2475 17.8828C12.3178 17.8125 12.3998 17.7539 12.4936 17.707C12.5873 17.6602 12.6752 17.6191 12.7572 17.584C12.851 17.5371 12.9389 17.4902 13.0209 17.4434C13.1029 17.3965 13.1791 17.332 13.2494 17.25C13.1674 17.1914 13.1264 17.1328 13.1264 17.0742C13.1381 17.0156 13.1557 16.957 13.1791 16.8984C13.2025 16.8281 13.226 16.7578 13.2494 16.6875C13.2846 16.6172 13.2846 16.5469 13.2494 16.4766C13.5658 16.5234 13.8412 16.4824 14.0756 16.3535C14.3217 16.2129 14.5502 16.0723 14.7611 15.9316C14.9838 15.791 15.2064 15.6914 15.4291 15.6328C15.6518 15.5742 15.9096 15.6445 16.2025 15.8438C16.226 15.9258 16.2611 16.0488 16.308 16.2129C16.3666 16.3652 16.4193 16.5234 16.4662 16.6875C16.5248 16.8516 16.5775 17.0098 16.6244 17.1621C16.6713 17.3145 16.7006 17.4258 16.7123 17.4961C16.7123 17.5547 16.7123 17.6484 16.7123 17.7773C16.7123 17.9062 16.7123 18.0469 16.7123 18.1992C16.7123 18.3398 16.7123 18.4746 16.7123 18.6035C16.7123 18.7324 16.7123 18.832 16.7123 18.9023C17.0521 19.1016 17.392 19.2246 17.7318 19.2715C18.0717 19.3066 18.4115 19.2246 18.7514 19.0254C18.8803 19.1426 19.0033 19.1777 19.1205 19.1309C19.2377 19.0723 19.349 19.0078 19.4545 18.9375C19.5717 18.8672 19.6889 18.832 19.8061 18.832C19.9232 18.8203 20.0404 18.9141 20.1576 19.1133C20.3217 18.9609 20.4916 18.8672 20.6674 18.832C20.8432 18.7852 21.0248 18.7617 21.2123 18.7617C21.3998 18.75 21.5814 18.7324 21.7572 18.709C21.9447 18.6855 22.1264 18.6094 22.3021 18.4805ZM15.5521 18.7793C15.5521 18.6035 15.5814 18.416 15.64 18.2168C15.6986 18.0176 15.7455 17.8242 15.7807 17.6367C15.8158 17.4375 15.81 17.25 15.7631 17.0742C15.7279 16.8984 15.6166 16.7402 15.4291 16.5996C15.3002 16.6699 15.1947 16.7695 15.1127 16.8984C15.0307 17.0156 14.9486 17.1387 14.8666 17.2676C14.7846 17.3848 14.685 17.4844 14.5678 17.5664C14.4623 17.6484 14.3217 17.6719 14.1459 17.6367C14.0873 17.7773 14.0873 17.8945 14.1459 17.9883C14.2045 18.0703 14.2748 18.1523 14.3568 18.2344C14.4389 18.3047 14.515 18.3809 14.5853 18.4629C14.6674 18.5449 14.6967 18.6504 14.6732 18.7793C14.7201 18.8145 14.7846 18.8496 14.8666 18.8848C14.9486 18.9082 15.0307 18.9258 15.1127 18.9375C15.2064 18.9375 15.2943 18.9258 15.3764 18.9023C15.4584 18.8789 15.517 18.8379 15.5521 18.7793ZM15.4291 20.1855C15.1947 20.1855 14.9896 20.1328 14.8139 20.0273C14.6498 19.9102 14.4799 19.7812 14.3041 19.6406C14.14 19.5 13.9643 19.3711 13.7768 19.2539C13.601 19.125 13.3842 19.0488 13.1264 19.0254C13.0209 19.166 12.8978 19.3008 12.7572 19.4297C12.6166 19.5469 12.4936 19.6758 12.3881 19.8164C12.2826 19.957 12.2064 20.1094 12.1596 20.2734C12.1244 20.4375 12.1537 20.625 12.2475 20.8359C11.9779 20.9648 11.7963 21.1523 11.7025 21.3984C11.6088 21.6328 11.5443 21.8906 11.5092 22.1719C11.4857 22.4531 11.4623 22.7344 11.4389 23.0156C11.4154 23.2969 11.3393 23.5488 11.2103 23.7715L11.5971 23.5078C11.6439 23.5312 11.6791 23.5664 11.7025 23.6133C11.7377 23.6602 11.7436 23.7129 11.7201 23.7715C11.8139 23.6777 11.9193 23.6074 12.0365 23.5605C12.1537 23.502 12.2709 23.4609 12.3881 23.4375C12.517 23.4023 12.64 23.373 12.7572 23.3496C12.8861 23.3262 13.0092 23.291 13.1264 23.2441C13.4193 23.4082 13.6303 23.4434 13.7592 23.3496C13.8881 23.2559 13.9936 23.1152 14.0756 22.9277C14.1576 22.7402 14.2455 22.5469 14.3393 22.3477C14.433 22.1367 14.5853 22.0078 14.7963 21.9609L14.6732 21.8379C14.8725 21.5918 15.0482 21.3398 15.2006 21.082C15.3646 20.8125 15.4408 20.5137 15.4291 20.1855ZM32.6908 18.9727C32.5619 19.1367 32.4623 19.3184 32.392 19.5176C32.3217 19.7168 32.2338 19.9043 32.1283 20.0801C32.0346 20.2559 31.9115 20.4023 31.7592 20.5195C31.6186 20.6367 31.4193 20.6895 31.1615 20.6777C30.974 20.748 30.8334 20.877 30.7396 21.0645C30.6576 21.2402 30.5756 21.4219 30.4936 21.6094C30.4115 21.7852 30.3061 21.9316 30.1771 22.0488C30.0482 22.1543 29.8549 22.166 29.5971 22.084C29.2689 22.2246 28.9701 22.4121 28.7006 22.6465C28.4428 22.8691 28.1967 23.1035 27.9623 23.3496C27.8803 23.4316 27.7865 23.5371 27.6811 23.666C27.5756 23.7832 27.476 23.8711 27.3822 23.9297C27.3002 23.9766 27.2182 23.9824 27.1361 23.9473C27.0541 23.9121 26.9779 23.877 26.9076 23.8418C26.8373 23.7949 26.767 23.7715 26.6967 23.7715C26.6381 23.7715 26.5853 23.8242 26.5385 23.9297C26.6205 24.0938 26.6381 24.2051 26.5912 24.2637C26.5443 24.334 26.4682 24.3867 26.3627 24.4219C26.2572 24.457 26.1459 24.4863 26.0287 24.5098C25.9115 24.5332 25.8178 24.5742 25.7475 24.6328C25.6068 24.7617 25.5072 24.9199 25.4486 25.1074C25.39 25.2949 25.3373 25.4824 25.2904 25.6699C25.2436 25.8574 25.1732 26.0332 25.0795 26.1973C24.9975 26.373 24.8568 26.5078 24.6576 26.6016C24.7748 26.6836 24.8217 26.7656 24.7982 26.8477C24.7865 26.9297 24.7572 27.0117 24.7103 27.0938C24.6635 27.1875 24.6283 27.2754 24.6049 27.3574C24.5932 27.4395 24.64 27.5215 24.7455 27.6035C24.5697 27.8262 24.4115 28.0664 24.2709 28.3242C24.142 28.582 24.0131 28.8398 23.8842 29.0977C23.7553 29.3672 23.6146 29.625 23.4623 29.8711C23.3217 30.1289 23.14 30.3574 22.9174 30.5566L22.9701 30.9785C22.7943 30.9316 22.683 30.9375 22.6361 30.9961C22.601 31.0547 22.5834 31.1367 22.5834 31.2422C22.5834 31.3477 22.5834 31.4531 22.5834 31.5586C22.5951 31.6758 22.56 31.7637 22.4779 31.8223C22.4428 31.8691 22.4018 31.9043 22.3549 31.9277C22.3197 31.9512 22.2846 31.9805 22.2494 32.0156C21.8744 32.2969 21.6166 32.6543 21.476 33.0879C21.4525 33.1582 21.435 33.2285 21.4232 33.2988C21.4115 33.3691 21.3939 33.4453 21.3705 33.5273C21.3119 33.6914 21.2182 33.8613 21.0893 34.0371C20.9603 34.2129 20.8197 34.3945 20.6674 34.582C20.515 34.7695 20.3686 34.9629 20.2279 35.1621C20.0873 35.373 19.976 35.584 19.8939 35.7949C19.7064 35.7715 19.56 35.7891 19.4545 35.8477C19.3373 35.918 19.2436 36.0059 19.1732 36.1113C19.1029 36.2285 19.0443 36.3516 18.9975 36.4805C18.9506 36.6094 18.892 36.7207 18.8217 36.8145C18.7396 36.9199 18.64 36.9961 18.5228 37.043C18.3939 37.1016 18.2299 37.1016 18.0307 37.043L17.2396 37.7637C17.099 37.6816 16.9643 37.6641 16.8353 37.7109C16.6947 37.7578 16.56 37.8223 16.4311 37.9043C16.2904 37.9863 16.1557 38.0508 16.0268 38.0977C15.8861 38.1445 15.7396 38.127 15.5873 38.0449C15.5053 38.1387 15.435 38.1855 15.3764 38.1855C15.3178 38.1973 15.2475 38.1504 15.1654 38.0449L14.9018 38.3262C14.7611 38.209 14.5912 38.0977 14.392 37.9922C14.1811 37.8984 13.9877 37.7871 13.8119 37.6582C13.6361 37.541 13.4955 37.4004 13.39 37.2363C13.2846 37.084 13.267 36.8848 13.3373 36.6387C13.3139 36.5684 13.2787 36.4922 13.2318 36.4102C13.1732 36.3281 13.1264 36.2402 13.0912 36.1465C13.0561 36.0645 13.0326 35.9766 13.0209 35.8828C13.0092 35.8008 13.0326 35.7246 13.0912 35.6543C12.9857 35.4551 12.9506 35.25 12.9857 35.0391C13.0092 34.8398 13.0502 34.6406 13.1088 34.4414C13.1674 34.2422 13.2143 34.043 13.2494 33.8438C13.2846 33.6445 13.2494 33.4453 13.1439 33.2461C13.2846 33.1406 13.39 33.0059 13.4603 32.8418C13.5189 32.6777 13.5775 32.5078 13.6361 32.332C13.683 32.1562 13.7357 31.9863 13.7943 31.8223C13.8529 31.6582 13.9525 31.5234 14.0932 31.418L14.0756 31.1367C14.6264 30.5508 15.2123 30.0117 15.8334 29.5195C16.4428 29.0391 17.1342 28.6816 17.9076 28.4473C18.06 28.1777 18.2592 27.9785 18.5053 27.8496C18.7514 27.7324 19.0033 27.6211 19.2611 27.5156C19.5072 27.4219 19.7357 27.2988 19.9467 27.1465C20.1576 27.0059 20.3158 26.7773 20.4213 26.4609C20.4799 26.5898 20.5385 26.6426 20.5971 26.6191C20.6557 26.6074 20.7143 26.5781 20.7728 26.5312C20.8432 26.4961 20.9076 26.4668 20.9662 26.4434C21.0248 26.4316 21.0834 26.4844 21.142 26.6016C21.2592 26.25 21.4467 25.9688 21.7045 25.7578C21.974 25.5469 22.267 25.3594 22.5834 25.1953C22.9115 25.043 23.2396 24.8906 23.5678 24.7383C23.8959 24.5977 24.183 24.4219 24.4291 24.2109C24.6869 24 24.8803 23.7422 25.0092 23.4375C25.1381 23.1211 25.1674 22.7168 25.0971 22.2246C25.2025 22.1543 25.2728 22.0664 25.308 21.9609C25.3432 21.8438 25.3666 21.7266 25.3783 21.6094C25.4018 21.4922 25.4311 21.3867 25.4662 21.293C25.5014 21.1992 25.5775 21.1348 25.6947 21.0996C25.6127 20.9707 25.5131 20.9121 25.3959 20.9238C25.2787 20.9355 25.1557 20.9707 25.0268 21.0293C24.9096 21.0879 24.7982 21.1465 24.6928 21.2051C24.5873 21.2637 24.4994 21.2754 24.4291 21.2402C24.3939 21.4043 24.3178 21.5215 24.2006 21.5918C24.0951 21.6621 23.9779 21.7266 23.849 21.7852C23.7201 21.832 23.5853 21.8848 23.4447 21.9434C23.3041 22.002 23.1928 22.0957 23.1107 22.2246C23.0053 22.1777 22.9057 22.2012 22.8119 22.2949C22.7299 22.377 22.642 22.4707 22.5482 22.5762C22.4662 22.6699 22.3725 22.7402 22.267 22.7871C22.1615 22.834 22.0385 22.7871 21.8978 22.6465C21.8275 22.834 21.7103 22.957 21.5463 23.0156C21.3939 23.0742 21.224 23.1035 21.0365 23.1035C20.849 23.1035 20.6557 23.0918 20.4564 23.0684C20.2689 23.0449 20.099 23.0508 19.9467 23.0859L19.6478 22.7871C19.6244 22.8457 19.5893 22.8926 19.5424 22.9277C19.4838 22.9629 19.4252 22.9688 19.3666 22.9453C19.2728 22.7461 19.185 22.5352 19.1029 22.3125C19.0092 22.0781 18.9506 21.8496 18.9271 21.627C18.892 21.3926 18.9096 21.1699 18.9799 20.959C19.0502 20.7363 19.1908 20.543 19.4018 20.3789C19.7299 19.7812 20.1576 19.3125 20.685 18.9727C20.7436 19.0195 20.808 19.0371 20.8783 19.0254C20.9486 19.002 21.0189 18.9727 21.0893 18.9375C21.1713 18.8906 21.2475 18.8438 21.3178 18.7969C21.3881 18.7383 21.4525 18.7031 21.5111 18.6914C21.5463 18.5625 21.6107 18.4395 21.7045 18.3223C21.81 18.2051 21.9213 18.0996 22.0385 18.0059C22.1674 17.9121 22.2963 17.8301 22.4252 17.7598C22.5658 17.6777 22.6947 17.6074 22.8119 17.5488C23.0346 17.4434 23.2396 17.3145 23.4271 17.1621C23.6264 16.998 23.8256 16.8457 24.0248 16.7051C24.224 16.5527 24.4291 16.4238 24.64 16.3184C24.851 16.2129 25.0912 16.1602 25.3607 16.1602L25.6771 16.4414C25.4779 16.5586 25.3021 16.7051 25.1498 16.8809C25.0092 17.0449 24.8627 17.2148 24.7103 17.3906C24.558 17.5547 24.3939 17.707 24.2182 17.8477C24.0424 17.9883 23.8256 18.082 23.5678 18.1289C23.3568 18.5391 23.0697 18.8906 22.7064 19.1836C22.3549 19.4648 21.9916 19.7285 21.6166 19.9746C21.6166 20.1504 21.5639 20.291 21.4584 20.3965C21.3529 20.502 21.2299 20.5957 21.0893 20.6777C20.9486 20.7598 20.808 20.8359 20.6674 20.9062C20.5268 20.9648 20.4096 21.0469 20.3158 21.1523C20.2338 21.2461 20.1928 21.3691 20.1928 21.5215C20.1928 21.6621 20.2689 21.8496 20.4213 22.084C20.5619 22.0137 20.7318 21.9668 20.9311 21.9434C21.1303 21.9199 21.3236 21.8906 21.5111 21.8555C21.6986 21.8086 21.8627 21.7441 22.0033 21.6621C22.1557 21.5684 22.2611 21.4277 22.3197 21.2402C22.4838 21.0996 22.6596 21.0117 22.8471 20.9766C23.0346 20.9414 23.2279 20.9355 23.4271 20.959C23.8139 20.5371 24.2006 20.1504 24.5873 19.7988C24.9857 19.4355 25.3607 19.0664 25.7123 18.6914C26.0639 18.3164 26.3861 17.918 26.6791 17.4961C26.9838 17.0625 27.2475 16.5645 27.4701 16.002C27.7045 15.9316 27.9154 15.9609 28.1029 16.0898C28.2904 16.2188 28.4252 16.3828 28.5072 16.582C28.4838 16.7227 28.4428 16.8574 28.3842 16.9863C28.3373 17.1035 28.2904 17.2207 28.2436 17.3379C28.2084 17.4434 28.1791 17.5605 28.1557 17.6895C28.1439 17.8184 28.1674 17.9648 28.226 18.1289C28.1322 18.1055 28.0561 18.1348 27.9975 18.2168C27.9506 18.2988 27.8978 18.3691 27.8393 18.4277C27.8744 18.5801 27.8686 18.7207 27.8217 18.8496C27.7748 18.9668 27.7162 19.084 27.6459 19.2012C27.5756 19.3066 27.5111 19.4238 27.4525 19.5527C27.4057 19.6816 27.3939 19.8223 27.4174 19.9746C27.2533 20.2793 27.1303 20.6016 27.0482 20.9414C26.9779 21.2695 26.9311 21.6035 26.9076 21.9434L27.224 22.2246C27.3764 22.002 27.5639 21.8438 27.7865 21.75C28.0209 21.6562 28.2553 21.5801 28.4896 21.5215C28.724 21.4512 28.9525 21.375 29.1752 21.293C29.3978 21.1992 29.5912 21.041 29.7553 20.8184C29.8256 20.4785 29.9721 20.2383 30.1947 20.0977C30.4174 19.9453 30.6518 19.8164 30.8978 19.7109C31.1439 19.6055 31.3783 19.4883 31.601 19.3594C31.8353 19.2188 31.9994 18.9961 32.0932 18.6914H32.5326C32.5092 18.75 32.5209 18.8027 32.5678 18.8496C32.6146 18.8965 32.6557 18.9375 32.6908 18.9727ZM22.9701 26.7598C22.8529 26.8301 22.724 26.8945 22.5834 26.9531C22.4428 27.0117 22.3021 27.0762 22.1615 27.1465C22.0209 27.2168 21.892 27.2988 21.7748 27.3926C21.6576 27.4863 21.5697 27.6035 21.5111 27.7441C21.3822 27.6738 21.2592 27.668 21.142 27.7266C21.0365 27.7969 20.9311 27.873 20.8256 27.9551C20.7201 28.0488 20.6088 28.125 20.4916 28.1836C20.3861 28.2422 20.2689 28.2363 20.14 28.166C19.9174 28.3066 19.7064 28.459 19.5072 28.623C19.2963 28.7871 19.0853 28.9453 18.8744 29.0977C18.6635 29.2617 18.4467 29.4082 18.224 29.5371C17.9896 29.6777 17.7436 29.7832 17.4857 29.8535C17.3568 30.0645 17.1869 30.2285 16.976 30.3457C16.765 30.4746 16.5541 30.5977 16.3432 30.7148C16.1205 30.832 15.9213 30.9727 15.7455 31.1367C15.5697 31.3008 15.4584 31.5293 15.4115 31.8223C15.0482 32.0566 14.8021 32.3555 14.6732 32.7188C14.5326 33.0938 14.4564 33.4863 14.4447 33.8965C14.433 34.3184 14.4506 34.7402 14.4975 35.1621C14.5443 35.5957 14.5678 35.9883 14.5678 36.3398C14.7201 36.5156 14.8725 36.6387 15.0248 36.709C15.1771 36.7793 15.3353 36.8145 15.4994 36.8145C15.6635 36.8145 15.8334 36.791 16.0092 36.7441C16.1732 36.709 16.3549 36.6738 16.5541 36.6387C16.601 36.4629 16.6889 36.3457 16.8178 36.2871C16.935 36.2402 17.0639 36.2051 17.2045 36.1816C17.3334 36.1582 17.4564 36.123 17.5736 36.0762C17.6791 36.041 17.7377 35.9473 17.7494 35.7949L17.9076 35.9355C17.9193 35.748 17.9721 35.5898 18.0658 35.4609C18.1596 35.3438 18.2709 35.2324 18.3998 35.127C18.5287 35.0215 18.6693 34.9219 18.8217 34.8281C18.9623 34.7344 19.0853 34.6289 19.1908 34.5117C19.1674 34.2891 19.2084 34.1016 19.3139 33.9492C19.4193 33.7969 19.5365 33.6562 19.6654 33.5273C19.7943 33.3984 19.9115 33.2578 20.017 33.1055C20.1107 32.9531 20.1459 32.7598 20.1225 32.5254C20.2396 32.4785 20.3217 32.4023 20.3686 32.2969C20.4154 32.1914 20.4623 32.0918 20.5092 31.998C20.5561 31.9043 20.6146 31.834 20.685 31.7871C20.767 31.7402 20.89 31.752 21.0541 31.8223C20.89 31.6934 20.8197 31.5938 20.8432 31.5234C20.8783 31.4531 20.9369 31.3887 21.0189 31.3301C21.101 31.2832 21.1771 31.2246 21.2475 31.1543C21.3178 31.084 21.3178 30.9785 21.2475 30.8379C21.5287 30.7207 21.7103 30.5508 21.7924 30.3281C21.8744 30.1055 21.933 29.8652 21.9682 29.6074C22.015 29.3613 22.0795 29.1152 22.1615 28.8691C22.2436 28.6348 22.4252 28.4473 22.7064 28.3066C22.683 28.0957 22.7182 27.9082 22.8119 27.7441C22.9174 27.5918 23.017 27.4453 23.1107 27.3047C23.2162 27.1641 23.2865 27.0176 23.3217 26.8652C23.3686 26.7129 23.3275 26.5312 23.1986 26.3203L22.9701 26.7598ZM43.6244 18.4805C43.6713 18.6562 43.6537 18.8086 43.5717 18.9375C43.4896 19.0547 43.3783 19.1602 43.2377 19.2539C43.1088 19.3477 42.9623 19.4355 42.7982 19.5176C42.6459 19.5879 42.517 19.6699 42.4115 19.7637C41.8842 19.8809 41.4037 19.9688 40.9701 20.0273C40.5482 20.0742 40.0795 20.1387 39.5639 20.2207C39.4115 20.2441 39.265 20.2441 39.1244 20.2207C38.9955 20.1855 38.8607 20.1738 38.7201 20.1855C38.6381 20.1855 38.5619 20.1855 38.4916 20.1855C38.4213 20.1738 38.351 20.1738 38.2807 20.1855C38.0111 20.209 37.8353 20.3027 37.7533 20.4668C37.6713 20.6191 37.601 20.8008 37.5424 21.0117C37.4955 21.2109 37.4311 21.4043 37.349 21.5918C37.2787 21.7676 37.1205 21.8906 36.8744 21.9609C36.851 22.0195 36.8568 22.0723 36.892 22.1191C36.9389 22.166 36.974 22.207 36.9975 22.2422C36.7982 22.3008 36.6635 22.4062 36.5932 22.5586C36.5346 22.7109 36.4818 22.8633 36.435 23.0156C36.3881 23.168 36.3178 23.2969 36.224 23.4023C36.142 23.5078 35.9779 23.543 35.7318 23.5078C35.3686 23.8945 34.9408 24.2051 34.4486 24.4395C33.9564 24.6855 33.4467 24.8438 32.9193 24.9141C32.8256 24.8672 32.7318 24.8086 32.6381 24.7383C32.5561 24.668 32.4682 24.6035 32.3744 24.5449C32.2924 24.4863 32.1986 24.4395 32.0932 24.4043C31.9994 24.3809 31.8881 24.3809 31.7592 24.4043C31.7475 24.1582 31.7006 23.9297 31.6186 23.7188C31.5248 23.5078 31.4076 23.3086 31.267 23.1211C31.2436 22.9102 31.2728 22.7168 31.3549 22.541C31.4252 22.3535 31.5014 22.1719 31.5834 21.9961C31.6654 21.8203 31.7357 21.6445 31.7943 21.4688C31.8412 21.2812 31.8295 21.0703 31.7592 20.8359C31.8764 20.7656 31.9525 20.6836 31.9877 20.5898C32.0346 20.4961 32.0639 20.4023 32.0756 20.3086C32.099 20.2031 32.1283 20.1094 32.1635 20.0273C32.1986 19.9336 32.2807 19.8574 32.4096 19.7988C32.3158 19.5176 32.3275 19.3125 32.4447 19.1836C32.5736 19.043 32.726 18.9199 32.9018 18.8145C33.0775 18.709 33.2416 18.5918 33.3939 18.4629C33.5463 18.334 33.6049 18.1406 33.5697 17.8828C33.64 17.8125 33.7221 17.7539 33.8158 17.707C33.9096 17.6602 33.9975 17.6191 34.0795 17.584C34.1732 17.5371 34.2611 17.4902 34.3432 17.4434C34.4252 17.3965 34.5014 17.332 34.5717 17.25C34.4896 17.1914 34.4486 17.1328 34.4486 17.0742C34.4603 17.0156 34.4779 16.957 34.5014 16.8984C34.5248 16.8281 34.5482 16.7578 34.5717 16.6875C34.6068 16.6172 34.6068 16.5469 34.5717 16.4766C34.8881 16.5234 35.1635 16.4824 35.3978 16.3535C35.6439 16.2129 35.8725 16.0723 36.0834 15.9316C36.3061 15.791 36.5287 15.6914 36.7514 15.6328C36.974 15.5742 37.2318 15.6445 37.5248 15.8438C37.5482 15.9258 37.5834 16.0488 37.6303 16.2129C37.6889 16.3652 37.7416 16.5234 37.7885 16.6875C37.8471 16.8516 37.8998 17.0098 37.9467 17.1621C37.9936 17.3145 38.0228 17.4258 38.0346 17.4961C38.0346 17.5547 38.0346 17.6484 38.0346 17.7773C38.0346 17.9062 38.0346 18.0469 38.0346 18.1992C38.0346 18.3398 38.0346 18.4746 38.0346 18.6035C38.0346 18.7324 38.0346 18.832 38.0346 18.9023C38.3744 19.1016 38.7143 19.2246 39.0541 19.2715C39.3939 19.3066 39.7338 19.2246 40.0736 19.0254C40.2025 19.1426 40.3256 19.1777 40.4428 19.1309C40.56 19.0723 40.6713 19.0078 40.7768 18.9375C40.8939 18.8672 41.0111 18.832 41.1283 18.832C41.2455 18.8203 41.3627 18.9141 41.4799 19.1133C41.6439 18.9609 41.8139 18.8672 41.9896 18.832C42.1654 18.7852 42.3471 18.7617 42.5346 18.7617C42.7221 18.75 42.9037 18.7324 43.0795 18.709C43.267 18.6855 43.4486 18.6094 43.6244 18.4805ZM36.8744 18.7793C36.8744 18.6035 36.9037 18.416 36.9623 18.2168C37.0209 18.0176 37.0678 17.8242 37.1029 17.6367C37.1381 17.4375 37.1322 17.25 37.0853 17.0742C37.0502 16.8984 36.9389 16.7402 36.7514 16.5996C36.6225 16.6699 36.517 16.7695 36.435 16.8984C36.3529 17.0156 36.2709 17.1387 36.1889 17.2676C36.1068 17.3848 36.0072 17.4844 35.89 17.5664C35.7846 17.6484 35.6439 17.6719 35.4682 17.6367C35.4096 17.7773 35.4096 17.8945 35.4682 17.9883C35.5268 18.0703 35.5971 18.1523 35.6791 18.2344C35.7611 18.3047 35.8373 18.3809 35.9076 18.4629C35.9896 18.5449 36.0189 18.6504 35.9955 18.7793C36.0424 18.8145 36.1068 18.8496 36.1889 18.8848C36.2709 18.9082 36.3529 18.9258 36.435 18.9375C36.5287 18.9375 36.6166 18.9258 36.6986 18.9023C36.7807 18.8789 36.8393 18.8379 36.8744 18.7793ZM36.7514 20.1855C36.517 20.1855 36.3119 20.1328 36.1361 20.0273C35.9721 19.9102 35.8021 19.7812 35.6264 19.6406C35.4623 19.5 35.2865 19.3711 35.099 19.2539C34.9232 19.125 34.7064 19.0488 34.4486 19.0254C34.3432 19.166 34.2201 19.3008 34.0795 19.4297C33.9389 19.5469 33.8158 19.6758 33.7103 19.8164C33.6049 19.957 33.5287 20.1094 33.4818 20.2734C33.4467 20.4375 33.476 20.625 33.5697 20.8359C33.3002 20.9648 33.1186 21.1523 33.0248 21.3984C32.9311 21.6328 32.8666 21.8906 32.8314 22.1719C32.808 22.4531 32.7846 22.7344 32.7611 23.0156C32.7377 23.2969 32.6615 23.5488 32.5326 23.7715L32.9193 23.5078C32.9662 23.5312 33.0014 23.5664 33.0248 23.6133C33.06 23.6602 33.0658 23.7129 33.0424 23.7715C33.1361 23.6777 33.2416 23.6074 33.3588 23.5605C33.476 23.502 33.5932 23.4609 33.7103 23.4375C33.8393 23.4023 33.9623 23.373 34.0795 23.3496C34.2084 23.3262 34.3314 23.291 34.4486 23.2441C34.7416 23.4082 34.9525 23.4434 35.0814 23.3496C35.2103 23.2559 35.3158 23.1152 35.3978 22.9277C35.4799 22.7402 35.5678 22.5469 35.6615 22.3477C35.7553 22.1367 35.9076 22.0078 36.1186 21.9609L35.9955 21.8379C36.1947 21.5918 36.3705 21.3398 36.5228 21.082C36.6869 20.8125 36.7631 20.5137 36.7514 20.1855Z" fill="#231F20"/>
</svg>
